# xmcd
#
# Track frame offsets:
#	150
#	17485
#	33437
#	46490
#	58350
#	72549
#	84682
#	98250
#	109278
#	123470
#	156073
#
# Disc length: 2264 seconds
#
# Revision: 1
# Processed by: cddbd v1.4PL0 Copyright (c) Steve Scherf et al.
# Submitted via: EasyCDDAExtractor 5.0.6
#
DISCID=9108d60b
DTITLE=The Blues Brothers
DYEAR=1980
DGENRE=Blues
TTITLE0=She Caught the Katy
TTITLE1=Peter Gunn Theme
TTITLE2=Gimme Some Lovin'
TTITLE3=Shake a Tail Feather
TTITLE4=Everybody Needs Somebody to Love
TTITLE5=The Old Landmark
TTITLE6=Think
TTITLE7=Theme From Rawhide
TTITLE8=Minnie The Moocher
TTITLE9=Sweet Home Chicago
TTITLE10=Jailhouse Rock
EXTD=
EXTT0=
EXTT1=
EXTT2=
EXTT3=
EXTT4=
EXTT5=
EXTT6=
EXTT7=
EXTT8=
EXTT9=
EXTT10=
PLAYORDER=
